<svg width="22" height="21" viewBox="0 0 22 21" fill="none" xmlns="http://www.w3.org/2000/svg">
<path d="M16.9355 1.75H16.0605V0.875C16.0605 0.642936 15.9684 0.420376 15.8043 0.256282C15.6402 0.0921872 15.4176 0 15.1855 0C14.9535 0 14.7309 0.0921872 14.5668 0.256282C14.4027 0.420376 14.3105 0.642936 14.3105 0.875V1.75H7.31055V0.875C7.31055 0.642936 7.21836 0.420376 7.05427 0.256282C6.89017 0.0921872 6.66761 0 6.43555 0C6.20348 0 5.98092 0.0921872 5.81683 0.256282C5.65273 0.420376 5.56055 0.642936 5.56055 0.875V1.75H4.68555C2.27317 1.75 0.310547 3.71263 0.310547 6.125V16.625C0.310547 19.0374 2.27317 21 4.68555 21H16.9355C19.3479 21 21.3105 19.0374 21.3105 16.625V6.125C21.3105 3.71263 19.3479 1.75 16.9355 1.75ZM4.68555 3.5H16.9355C18.3828 3.5 19.5605 4.67775 19.5605 6.125V7H2.06055V6.125C2.06055 4.67775 3.2383 3.5 4.68555 3.5ZM16.9355 19.25H4.68555C3.2383 19.25 2.06055 18.0723 2.06055 16.625V8.75H19.5605V16.625C19.5605 18.0723 18.3828 19.25 16.9355 19.25ZM15.9135 11.508C15.9934 11.5907 16.0561 11.6883 16.0982 11.7952C16.1403 11.9021 16.1609 12.0163 16.1589 12.1312C16.1568 12.246 16.1322 12.3594 16.0863 12.4648C16.0405 12.5701 15.9743 12.6654 15.8917 12.7452L11.7442 16.7423C11.2603 17.2261 10.6005 17.5 9.89967 17.5C9.1988 17.5 8.53905 17.227 8.0438 16.7309L6.0733 14.9004C5.9084 14.7412 5.81253 14.5237 5.80628 14.2946C5.80004 14.0655 5.88392 13.8431 6.0399 13.6752C6.19588 13.5073 6.41151 13.4073 6.64044 13.3967C6.86937 13.3861 7.09333 13.4657 7.26417 13.6185L9.25742 15.4709C9.6363 15.8471 10.1875 15.8226 10.5165 15.4936L14.6763 11.4844C14.759 11.4046 14.8567 11.342 14.9636 11.2999C15.0706 11.2579 15.1847 11.2374 15.2996 11.2395C15.4145 11.2416 15.5279 11.2663 15.6332 11.3123C15.7385 11.3582 15.8338 11.4244 15.9135 11.5071V11.508Z" fill="#B6B6B6"/>
</svg>
