<svg width="24" height="23" viewBox="0 0 24 23" fill="none" xmlns="http://www.w3.org/2000/svg">
<path d="M21.3939 5.4889V1.92076C21.3939 1.66664 21.2929 1.42294 21.1132 1.24325C20.9335 1.06356 20.6897 0.962613 20.4355 0.962613C20.1814 0.962613 19.9376 1.06356 19.7579 1.24325C19.5782 1.42294 19.4772 1.66664 19.4772 1.92076V4.18774L14.491 0.823682C13.7002 0.28695 12.7664 0 11.8105 0C10.8547 0 9.92092 0.28695 9.13009 0.823682L2.42176 5.34997C1.77132 5.78834 1.23861 6.3798 0.870467 7.07233C0.502328 7.76486 0.31005 8.53723 0.310548 9.32149V18.2093C0.310548 20.8509 2.46009 23 5.10221 23H7.01888C7.27305 23 7.5168 22.8991 7.69652 22.7194C7.87625 22.5397 7.97721 22.296 7.97721 22.0419V13.4185C7.97721 12.8906 8.40655 12.4604 8.93555 12.4604H14.6855C15.2145 12.4604 15.6439 12.8906 15.6439 13.4185V22.0419C15.6439 22.296 15.7448 22.5397 15.9246 22.7194C16.1043 22.8991 16.348 23 16.6022 23H18.5189C21.161 23 23.3105 20.8509 23.3105 18.2093V9.32149C23.3109 8.57769 23.1379 7.84403 22.8052 7.17875C22.4725 6.51348 21.9893 5.93489 21.3939 5.4889Z" fill="#B6B6B6"/>
</svg>
