<svg width="17" height="21" viewBox="0 0 17 21" fill="none" xmlns="http://www.w3.org/2000/svg">
<path d="M16.3105 20.5H14.5328V16.2975C14.5321 15.6442 14.2549 15.0178 13.7621 14.5558C13.2694 14.0938 12.6012 13.834 11.9043 13.8333H4.71677C4.01988 13.834 3.35173 14.0938 2.85896 14.5558C2.36618 15.0178 2.08903 15.6442 2.08832 16.2975V20.5H0.310547V16.2975C0.311958 15.2023 0.776637 14.1524 1.60266 13.378C2.42868 12.6036 3.5486 12.168 4.71677 12.1667H11.9043C13.0725 12.168 14.1924 12.6036 15.0184 13.378C15.8445 14.1524 16.3091 15.2023 16.3105 16.2975V20.5ZM8.31055 10.5C7.25571 10.5 6.22457 10.2068 5.34751 9.65735C4.47044 9.10794 3.78686 8.32705 3.38319 7.41342C2.97952 6.49979 2.8739 5.49446 3.07969 4.52455C3.28548 3.55465 3.79343 2.66373 4.53931 1.96447C5.28519 1.26521 6.2355 0.789002 7.27007 0.596076C8.30463 0.40315 9.37699 0.502166 10.3515 0.880605C11.3261 1.25904 12.159 1.89991 12.7451 2.72215C13.3311 3.5444 13.6439 4.5111 13.6439 5.5C13.6425 6.82568 13.0801 8.09668 12.0802 9.03407C11.0803 9.97147 9.7246 10.4987 8.31055 10.5ZM8.31055 2.16667C7.60732 2.16667 6.9199 2.36217 6.33519 2.72844C5.75048 3.09471 5.29475 3.6153 5.02564 4.22439C4.75653 4.83348 4.68612 5.5037 4.82331 6.1503C4.9605 6.79691 5.29914 7.39085 5.79639 7.85702C6.29364 8.3232 6.92718 8.64067 7.61689 8.76929C8.3066 8.8979 9.02151 8.83189 9.6712 8.5796C10.3209 8.32731 10.8762 7.90007 11.2669 7.3519C11.6576 6.80374 11.8661 6.15927 11.8661 5.5C11.8661 4.61595 11.4915 3.7681 10.8247 3.14298C10.1579 2.51786 9.25354 2.16667 8.31055 2.16667Z" fill="#B6B6B6"/>
</svg>
