<svg width="22" height="21" viewBox="0 0 22 21" fill="none" xmlns="http://www.w3.org/2000/svg">
<path d="M12.1234 9.31794C12.1233 9.67109 11.9849 10.0097 11.7386 10.2594C11.4923 10.509 11.1583 10.6492 10.8101 10.6491C10.4619 10.649 10.128 10.5085 9.88189 10.2587C9.63576 10.0089 9.49755 9.67021 9.49767 9.31705C9.49778 8.96389 9.63621 8.62525 9.88251 8.37561C10.1288 8.12598 10.4628 7.9858 10.811 7.98592C11.1592 7.98603 11.4931 8.12644 11.7392 8.37624C11.9853 8.62604 12.1235 8.96478 12.1234 9.31794ZM15.1858 7.9868C14.8376 7.98692 14.5037 8.12732 14.2576 8.37713C14.0115 8.62693 13.8732 8.96567 13.8734 9.31882C13.8735 9.67198 14.0119 10.0106 14.2582 10.2603C14.5045 10.5099 14.8385 10.6501 15.1867 10.65C15.3591 10.6499 15.5298 10.6154 15.6891 10.5484C15.8483 10.4815 15.993 10.3833 16.1149 10.2596C16.2368 10.1359 16.3334 9.98912 16.3994 9.82754C16.4653 9.66597 16.4992 9.4928 16.4991 9.31794C16.4991 9.14307 16.465 8.96993 16.399 8.8084C16.333 8.64687 16.2362 8.50011 16.1143 8.3765C15.9923 8.25289 15.8476 8.15486 15.6883 8.08799C15.5289 8.02113 15.3582 7.98674 15.1858 7.9868ZM6.43617 7.9868C6.08797 7.98692 5.75408 8.12732 5.50795 8.37713C5.26182 8.62693 5.12361 8.96567 5.12372 9.31882C5.12384 9.67198 5.26227 10.0106 5.50857 10.2603C5.75486 10.5099 6.08884 10.6501 6.43704 10.65C6.78524 10.6498 7.11913 10.5094 7.36526 10.2596C7.61139 10.0098 7.7496 9.67109 7.74949 9.31794C7.74937 8.96478 7.61094 8.62613 7.36464 8.3765C7.11835 8.12686 6.78437 7.98669 6.43617 7.9868ZM21.3105 3.54969V14.1988C21.3105 16.1564 19.7409 17.7485 17.8107 17.7485H15.3153L11.9484 20.5705C11.6365 20.8496 11.234 21.0025 10.818 21C10.3869 21.0005 9.97054 20.8404 9.64816 20.55L6.36792 17.7485H3.8104C1.88023 17.7485 0.310547 16.1564 0.310547 14.1988V3.54969C0.311936 2.60853 0.681236 1.70634 1.33747 1.04092C1.99371 0.375506 2.88333 0.00117363 3.81128 0H17.8107C19.7409 0 21.3105 1.59204 21.3105 3.54969ZM19.5606 3.54969C19.5606 2.57086 18.7758 1.77485 17.8107 1.77485H3.81128C2.84619 1.77485 2.06135 2.57086 2.06135 3.54969V14.1988C2.06135 15.1776 2.84619 15.9736 3.81128 15.9736H6.68816C6.89377 15.9736 7.09414 16.0473 7.25251 16.1822L10.7944 19.2083L14.4438 16.1768C14.6006 16.0454 14.7977 15.9735 15.0012 15.9736H17.8116C18.7767 15.9736 19.5615 15.1776 19.5615 14.1988L19.5606 3.54969Z" fill="#B6B6B6"/>
</svg>
