<svg width="26" height="25" viewBox="0 0 26 25" fill="none" xmlns="http://www.w3.org/2000/svg">
<path d="M25.3105 7.29167V8.33333H0.310547V7.29167C0.310547 5.91033 0.85928 4.58557 1.83603 3.60882C2.81278 2.63207 4.13754 2.08333 5.51888 2.08333H6.56055V1.04167C6.56055 0.765399 6.67029 0.500448 6.86564 0.305097C7.06099 0.109747 7.32595 0 7.60221 0C7.87848 0 8.14343 0.109747 8.33878 0.305097C8.53413 0.500448 8.64388 0.765399 8.64388 1.04167V2.08333H16.9772V1.04167C16.9772 0.765399 17.087 0.500448 17.2823 0.305097C17.4777 0.109747 17.7426 0 18.0189 0C18.2951 0 18.5601 0.109747 18.7554 0.305097C18.9508 0.500448 19.0605 0.765399 19.0605 1.04167V2.08333H20.1022C20.7862 2.08333 21.4635 2.21805 22.0954 2.47979C22.7273 2.74154 23.3014 3.12518 23.7851 3.60882C24.2687 4.09246 24.6523 4.66662 24.9141 5.29852C25.1758 5.93043 25.3105 6.6077 25.3105 7.29167ZM25.3105 17.7083C25.3105 21.7292 22.0387 25 18.0189 25C13.9991 25 10.7272 21.7292 10.7272 17.7083C10.7272 13.6875 13.9991 10.4167 18.0189 10.4167C22.0387 10.4167 25.3105 13.6875 25.3105 17.7083ZM20.1022 18.3188L19.0605 17.2771V15.625C19.0605 15.3487 18.9508 15.0838 18.7554 14.8884C18.5601 14.6931 18.2951 14.5833 18.0189 14.5833C17.7426 14.5833 17.4777 14.6931 17.2823 14.8884C17.087 15.0838 16.9772 15.3487 16.9772 15.625V17.7083C16.9772 17.9844 17.0866 18.25 17.2824 18.4448L18.6293 19.7917C18.8258 19.9814 19.0889 20.0864 19.362 20.084C19.6351 20.0817 19.8964 19.9721 20.0895 19.779C20.2827 19.5858 20.3922 19.3246 20.3946 19.0515C20.397 18.7783 20.292 18.5152 20.1022 18.3188ZM8.64388 17.7083C8.64313 16.3094 8.95614 14.9282 9.55988 13.6662C10.1636 12.4043 11.0427 11.2939 12.1324 10.4167H0.310547V19.7917C0.310547 20.4756 0.445264 21.1529 0.707008 21.7848C0.968751 22.4167 1.35239 22.9909 1.83603 23.4745C2.81278 24.4513 4.13754 25 5.51888 25H12.1324C11.0427 24.1228 10.1636 23.0124 9.55988 21.7504C8.95614 20.4885 8.64313 19.1072 8.64388 17.7083Z" fill="#B6B6B6"/>
</svg>
