<svg width="512" height="512" viewBox="0 0 512 512" fill="none" xmlns="http://www.w3.org/2000/svg">
<path d="M256 177.75C212.821 177.75 177.749 212.822 177.749 256C177.749 299.179 212.821 334.336 256 334.336C299.179 334.336 334.336 299.179 334.336 256C334.336 212.822 299.179 177.75 256 177.75Z" fill="black"/>
<path d="M374.101 42.6667H137.899C85.4187 42.6667 42.6667 85.4187 42.6667 137.899V374.101C42.6667 426.667 85.4187 469.333 137.899 469.333H374.101C426.667 469.333 469.333 426.667 469.333 374.101V137.899C469.333 85.4187 426.667 42.6667 374.101 42.6667ZM256 394.24C179.797 394.24 117.76 332.203 117.76 256C117.76 179.797 179.797 117.845 256 117.845C332.203 117.845 394.24 179.797 394.24 256C394.24 332.203 332.203 394.24 256 394.24ZM397.141 142.933C381.013 142.933 367.872 129.877 367.872 113.749C367.872 97.6214 381.013 84.4801 397.141 84.4801C413.269 84.4801 426.411 97.6214 426.411 113.749C426.411 129.877 413.269 142.933 397.141 142.933Z" fill="black"/>
</svg>
